<?xml version="1.0" standalone="no"?>
<!DOCTYPE svg PUBLIC "-//W3C//DTD SVG 20010904//EN"
 "http://www.w3.org/TR/2001/REC-SVG-20010904/DTD/svg10.dtd">
<svg version="1.0" xmlns="http://www.w3.org/2000/svg"
 width="255.000000pt" height="256.000000pt" viewBox="0 0 255.000000 256.000000"
 preserveAspectRatio="xMidYMid meet">

<g transform="translate(0.000000,256.000000) scale(0.100000,-0.100000)"
fill="#ff6600" stroke="none">
<path d="M279 2460 c-80 -14 -127 -47 -165 -120 -18 -34 -19 -79 -19 -1065 l0
-1030 25 -45 c31 -55 75 -85 144 -100 36 -7 359 -10 1046 -8 l995 3 40 21 c46
25 65 45 91 94 18 33 19 80 22 1035 2 682 -1 1016 -8 1050 -15 68 -45 109
-105 142 l-50 28 -985 1 c-542 1 -1006 -2 -1031 -6z m1316 -369 c212 -84 347
-267 362 -491 12 -188 -58 -349 -204 -471 -119 -99 -237 -129 -509 -129 l-184
0 0 -265 0 -265 -165 0 -165 0 0 826 0 825 403 -3 c395 -3 403 -4 462 -27z"/>
<path d="M1060 1560 l0 -240 198 0 c177 0 202 3 242 21 94 42 134 107 134 214
0 80 -20 129 -76 182 -60 57 -86 63 -303 63 l-195 0 0 -240z"/>
</g>
</svg>
